G04*
G04 #@! TF.GenerationSoftware,Altium Limited,Altium Designer,20.2.4 (192)*
G04*
G04 Layer_Color=16711935*
%FSLAX44Y44*%
%MOMM*%
G71*
G04*
G04 #@! TF.SameCoordinates,5829A05F-E1E1-40F9-AA7D-9744E717BD19*
G04*
G04*
G04 #@! TF.FilePolarity,Positive*
G04*
G01*
G75*
%ADD18C,0.0000*%
D18*
X106952Y-204468D02*
G03*
X113048Y-204468I3048J0D01*
G01*
X82060Y-335532D02*
Y-204468D01*
X106952D01*
X113048D01*
X137940D01*
Y-335532D02*
Y-204468D01*
X82060Y-335532D02*
X137940D01*
Y-215898D02*
X150894D01*
Y-218946D02*
Y-215898D01*
X137940Y-218946D02*
X150894D01*
X137940D02*
Y-215898D01*
Y-220978D02*
X150894D01*
Y-224026D02*
Y-220978D01*
X137940Y-224026D02*
X150894D01*
X137940D02*
Y-220978D01*
Y-226058D02*
X150894D01*
Y-228852D02*
Y-226058D01*
X137940Y-228852D02*
X150894D01*
X137940D02*
Y-226058D01*
Y-230884D02*
X150894D01*
Y-233932D02*
Y-230884D01*
X137940Y-233932D02*
X150894D01*
X137940D02*
Y-230884D01*
Y-235964D02*
X150894D01*
Y-239012D02*
Y-235964D01*
X137940Y-239012D02*
X150894D01*
X137940D02*
Y-235964D01*
Y-241044D02*
X150894D01*
Y-244092D02*
Y-241044D01*
X137940Y-244092D02*
X150894D01*
X137940D02*
Y-241044D01*
Y-245870D02*
X150894D01*
Y-248918D02*
Y-245870D01*
X137940Y-248918D02*
X150894D01*
X137940D02*
Y-245870D01*
Y-250950D02*
X150894D01*
Y-253998D02*
Y-250950D01*
X137940Y-253998D02*
X150894D01*
X137940D02*
Y-250950D01*
Y-256030D02*
X150894D01*
Y-259078D02*
Y-256030D01*
X137940Y-259078D02*
X150894D01*
X137940D02*
Y-256030D01*
Y-261110D02*
X150894D01*
Y-263904D02*
Y-261110D01*
X137940Y-263904D02*
X150894D01*
X137940D02*
Y-261110D01*
Y-265936D02*
X150894D01*
Y-268984D02*
Y-265936D01*
X137940Y-268984D02*
X150894D01*
X137940D02*
Y-265936D01*
Y-271016D02*
X150894D01*
Y-274064D02*
Y-271016D01*
X137940Y-274064D02*
X150894D01*
X137940D02*
Y-271016D01*
Y-276096D02*
X150894D01*
Y-278890D02*
Y-276096D01*
X137940Y-278890D02*
X150894D01*
X137940D02*
Y-276096D01*
Y-280922D02*
X150894D01*
Y-283970D02*
Y-280922D01*
X137940Y-283970D02*
X150894D01*
X137940D02*
Y-280922D01*
Y-286002D02*
X150894D01*
Y-289050D02*
Y-286002D01*
X137940Y-289050D02*
X150894D01*
X137940D02*
Y-286002D01*
Y-291082D02*
X150894D01*
Y-294130D02*
Y-291082D01*
X137940Y-294130D02*
X150894D01*
X137940D02*
Y-291082D01*
Y-295908D02*
X150894D01*
Y-298956D02*
Y-295908D01*
X137940Y-298956D02*
X150894D01*
X137940D02*
Y-295908D01*
Y-300988D02*
X150894D01*
Y-304036D02*
Y-300988D01*
X137940Y-304036D02*
X150894D01*
X137940D02*
Y-300988D01*
Y-306068D02*
X150894D01*
Y-309116D02*
Y-306068D01*
X137940Y-309116D02*
X150894D01*
X137940D02*
Y-306068D01*
Y-311148D02*
X150894D01*
Y-313942D02*
Y-311148D01*
X137940Y-313942D02*
X150894D01*
X137940D02*
Y-311148D01*
Y-315974D02*
X150894D01*
Y-319022D02*
Y-315974D01*
X137940Y-319022D02*
X150894D01*
X137940D02*
Y-315974D01*
Y-321054D02*
X150894D01*
Y-324102D02*
Y-321054D01*
X137940Y-324102D02*
X150894D01*
X137940D02*
Y-321054D01*
X69106Y-324102D02*
X82060D01*
X69106D02*
Y-321054D01*
X82060D01*
Y-324102D02*
Y-321054D01*
X69106Y-319022D02*
X82060D01*
X69106D02*
Y-315974D01*
X82060D01*
Y-319022D02*
Y-315974D01*
X69106Y-313942D02*
X82060D01*
X69106D02*
Y-311148D01*
X82060D01*
Y-313942D02*
Y-311148D01*
X69106Y-309116D02*
X82060D01*
X69106D02*
Y-306068D01*
X82060D01*
Y-309116D02*
Y-306068D01*
X69106Y-304036D02*
X82060D01*
X69106D02*
Y-300988D01*
X82060D01*
Y-304036D02*
Y-300988D01*
X69106Y-298956D02*
X82060D01*
X69106D02*
Y-295908D01*
X82060D01*
Y-298956D02*
Y-295908D01*
X69106Y-294130D02*
X82060D01*
X69106D02*
Y-291082D01*
X82060D01*
Y-294130D02*
Y-291082D01*
X69106Y-289050D02*
X82060D01*
X69106D02*
Y-286002D01*
X82060D01*
Y-289050D02*
Y-286002D01*
X69106Y-283970D02*
X82060D01*
X69106D02*
Y-280922D01*
X82060D01*
Y-283970D02*
Y-280922D01*
X69106Y-278890D02*
X82060D01*
X69106D02*
Y-276096D01*
X82060D01*
Y-278890D02*
Y-276096D01*
X69106Y-274064D02*
X82060D01*
X69106D02*
Y-271016D01*
X82060D01*
Y-274064D02*
Y-271016D01*
X69106Y-268984D02*
X82060D01*
X69106D02*
Y-265936D01*
X82060D01*
Y-268984D02*
Y-265936D01*
X69106Y-263904D02*
X82060D01*
X69106D02*
Y-261110D01*
X82060D01*
Y-263904D02*
Y-261110D01*
X69106Y-259078D02*
X82060D01*
X69106D02*
Y-256030D01*
X82060D01*
Y-259078D02*
Y-256030D01*
X69106Y-253998D02*
X82060D01*
X69106D02*
Y-250950D01*
X82060D01*
Y-253998D02*
Y-250950D01*
X69106Y-248918D02*
X82060D01*
X69106D02*
Y-245870D01*
X82060D01*
Y-248918D02*
Y-245870D01*
X69106Y-244092D02*
X82060D01*
X69106D02*
Y-241044D01*
X82060D01*
Y-244092D02*
Y-241044D01*
X69106Y-239012D02*
X82060D01*
X69106D02*
Y-235964D01*
X82060D01*
Y-239012D02*
Y-235964D01*
X69106Y-233932D02*
X82060D01*
X69106D02*
Y-230884D01*
X82060D01*
Y-233932D02*
Y-230884D01*
X69106Y-228852D02*
X82060D01*
X69106D02*
Y-226058D01*
X82060D01*
Y-228852D02*
Y-226058D01*
X69106Y-224026D02*
X82060D01*
X69106D02*
Y-220978D01*
X82060D01*
Y-224026D02*
Y-220978D01*
X69106Y-218946D02*
X82060D01*
X69106D02*
Y-215898D01*
X82060D01*
Y-218946D02*
Y-215898D01*
M02*
