M48
;Layer_Color=9474304
;FILE_FORMAT=4:4
METRIC,LZ
;TYPE=PLATED
T1F00S00C0.8000
%
T01
X0Y-005334
Y-00508
Y-004826
Y-004572
Y-004318
X0022
Y-004572
Y-004826
Y-00508
Y-005334
Y-004064
Y-00381
Y-003556
Y-003302
Y-003048
Y-002794
Y-00254
Y-002286
Y-002032
Y-001778
Y-001524
Y-00127
Y-001016
Y-000762
Y-000508
Y-000254
X0
Y-000508
Y-000762
Y-001016
Y-00127
Y-001524
Y-001778
Y-002032
Y-002286
Y-00254
Y-002794
Y-003048
Y-003302
Y-003556
Y-00381
Y-004064
Y0
X0022
M30
